<?xml version="1.0" standalone="no"?>
<!DOCTYPE svg PUBLIC "-//W3C//DTD SVG 20010904//EN"
 "http://www.w3.org/TR/2001/REC-SVG-20010904/DTD/svg10.dtd">
<svg version="1.0" xmlns="http://www.w3.org/2000/svg"
 width="1019.000000pt" height="774.000000pt" viewBox="0 0 1019.000000 774.000000"
 preserveAspectRatio="xMidYMid meet">
<metadata>
Created by potrace 1.16, written by Peter Selinger 2001-2019
</metadata>
<g transform="translate(0.000000,774.000000) scale(0.100000,-0.100000)"
fill="#000000" stroke="none">
<path d="M4425 6691 c-396 -28 -798 -171 -1103 -393 -30 -23 -58 -36 -65 -32
-6 4 -9 4 -5 -1 4 -4 -11 -20 -32 -34 -76 -51 -275 -238 -335 -315 -16 -21
-39 -49 -50 -62 -11 -13 -28 -33 -38 -46 -81 -105 -97 -127 -97 -136 0 -6 -6
-17 -12 -24 -14 -14 -54 -76 -76 -116 -56 -102 -72 -134 -72 -146 0 -7 -9 -23
-20 -36 -11 -13 -20 -29 -20 -37 0 -8 -9 -32 -21 -55 -11 -22 -22 -50 -25 -62
-2 -11 -8 -30 -13 -41 -10 -19 -25 -72 -57 -195 -8 -30 -16 -65 -18 -78 -3
-12 -7 -30 -10 -40 -2 -9 -7 -43 -10 -74 -3 -32 -9 -84 -13 -115 -8 -64 -7
-402 1 -501 3 -34 10 -88 16 -120 7 -31 14 -66 16 -77 5 -25 33 -147 38 -160
2 -5 6 -17 9 -25 3 -8 8 -28 12 -45 8 -37 54 -156 66 -171 6 -7 9 -16 7 -20
-1 -5 19 -52 44 -104 26 -52 48 -101 50 -109 2 -7 12 -24 23 -36 11 -13 29
-40 40 -62 10 -21 26 -46 34 -55 8 -10 11 -18 6 -18 -4 0 9 -18 28 -39 19 -22
41 -50 47 -63 7 -12 28 -40 48 -60 20 -21 33 -38 29 -38 -4 0 10 -17 30 -38
21 -21 47 -50 58 -63 12 -13 44 -45 72 -71 28 -27 60 -58 70 -70 10 -13 36
-35 58 -50 22 -15 57 -43 78 -63 20 -19 42 -35 47 -35 6 0 10 -4 10 -10 0 -5
6 -10 14 -10 8 0 21 -6 28 -12 8 -7 21 -17 30 -23 8 -5 42 -28 74 -49 32 -21
77 -48 99 -59 22 -11 48 -27 59 -36 10 -9 19 -14 20 -11 0 3 26 -7 56 -21 91
-44 173 -77 251 -103 142 -45 317 -86 372 -86 19 0 71 -7 114 -15 90 -17 388
-21 442 -5 19 5 75 12 125 16 50 3 94 8 99 11 4 2 7 0 7 -6 0 -19 147 18 181
46 14 11 112 49 184 70 11 3 25 10 30 14 6 4 48 22 93 38 74 28 84 29 100 16
9 -9 288 -285 620 -614 369 -367 612 -601 628 -605 22 -6 35 4 100 71 148 153
325 331 563 567 133 131 241 244 241 250 0 11 -320 334 -902 911 -153 152
-278 280 -278 285 0 5 -7 13 -16 18 -17 9 -17 10 19 77 100 191 193 437 232
611 9 43 20 84 25 89 4 6 8 37 9 70 1 33 6 89 11 125 13 88 12 305 -1 431 -5
57 -11 125 -12 151 -1 27 -5 48 -8 48 -3 0 -11 33 -18 73 -7 39 -24 107 -37
150 -13 43 -23 81 -22 85 0 4 -7 25 -17 47 -9 22 -18 50 -19 62 0 11 -4 19 -7
17 -4 -2 -12 11 -19 29 -6 17 -20 51 -31 75 -10 23 -19 51 -19 62 0 11 -4 20
-9 20 -8 0 -25 30 -99 174 -8 16 -23 37 -33 47 -11 11 -19 26 -19 34 0 8 -4
15 -9 15 -5 0 -13 9 -16 20 -3 11 -12 26 -18 32 -11 12 -70 86 -89 113 -29 41
-148 163 -257 265 -42 39 -155 123 -236 176 -217 142 -325 194 -570 278 -122
42 -173 54 -370 90 -97 18 -390 27 -540 17z m360 -331 c340 -31 671 -150 960
-343 384 -258 697 -733 795 -1210 123 -601 -34 -1208 -434 -1676 -25 -30 -46
-60 -46 -65 1 -6 37 -47 80 -91 44 -44 80 -82 80 -85 0 -3 -49 -55 -110 -115
l-110 -110 -92 92 -93 92 -103 -67 c-57 -37 -124 -80 -149 -97 -39 -25 -61
-55 -144 -195 -148 -249 -150 -252 -203 -285 -40 -24 -62 -30 -120 -33 -80 -4
-49 -19 -375 181 -143 87 -164 97 -208 97 -26 0 -95 7 -152 15 -502 72 -926
306 -1248 689 -69 82 -113 144 -222 318 -75 118 -183 441 -214 642 -21 132
-22 437 -2 571 87 589 434 1105 947 1408 135 80 230 122 398 177 261 85 505
114 765 90z m1687 -3507 c38 -37 68 -71 68 -76 0 -4 -95 -102 -211 -218 l-212
-210 -72 68 c-40 37 -73 72 -74 78 -1 12 410 425 424 425 5 0 40 -30 77 -67z
m148 -278 c35 -36 69 -65 74 -65 6 0 23 12 38 27 l29 27 287 -287 287 -287
-210 -210 c-115 -115 -214 -210 -220 -210 -6 0 -137 127 -293 283 l-283 283
31 29 30 29 -72 73 -73 73 150 150 c82 83 152 150 155 150 3 0 35 -29 70 -65z"/>
<path d="M4640 5948 c0 -3 9 -40 20 -83 36 -141 24 -255 -40 -390 -98 -206
-293 -325 -532 -325 -193 0 -401 130 -488 305 -19 39 -37 72 -38 75 -6 8 -121
-118 -181 -200 -189 -255 -301 -570 -301 -850 0 -94 15 -208 29 -222 6 -7 462
730 469 758 2 7 9 14 15 17 7 2 136 -71 287 -164 151 -92 283 -168 292 -169 9
0 19 4 22 9 10 16 159 70 246 90 47 10 123 22 169 25 47 4 91 12 98 18 7 6 58
71 114 144 l101 134 41 0 c102 0 197 43 280 127 101 101 269 377 254 416 -18
47 -286 183 -457 231 -108 31 -400 70 -400 54z"/>
<path d="M5716 5281 c-133 -189 -169 -292 -168 -482 1 -108 16 -193 53 -307
15 -44 18 -67 11 -74 -6 -6 -38 -9 -76 -6 -84 5 -139 42 -178 118 l-26 53 -15
-35 c-15 -35 -14 -38 29 -125 57 -115 94 -258 99 -393 3 -65 10 -109 17 -116
7 -6 101 -64 208 -129 107 -64 212 -130 233 -147 21 -16 40 -28 41 -27 30 35
117 230 151 339 115 362 84 775 -85 1125 -69 143 -184 315 -211 315 -3 0 -41
-49 -83 -109z"/>
<path d="M4882 4743 c-22 -38 -47 -83 -56 -100 -9 -18 -19 -33 -23 -33 -3 0
-26 12 -51 26 -39 23 -56 26 -131 26 -96 0 -160 -12 -233 -44 -40 -17 -47 -23
-36 -33 17 -16 888 -542 913 -551 17 -7 18 -2 13 67 -7 82 -36 181 -74 246
-19 32 -40 51 -94 79 -39 20 -70 42 -70 50 0 7 14 50 30 95 17 45 29 87 27 92
-1 5 -19 -21 -39 -59 -62 -117 -52 -112 -141 -68 -49 25 -77 44 -77 55 0 9 17
54 38 100 21 46 42 92 45 102 13 35 -3 16 -41 -50z"/>
<path d="M3640 4659 c-39 -24 -53 -39 -80 -90 -22 -42 -17 -53 40 -86 31 -18
185 -111 770 -466 860 -521 1229 -741 1250 -744 21 -3 30 4 54 42 53 85 52
159 -2 209 -15 14 -128 87 -252 162 -124 75 -353 214 -510 309 -157 95 -454
275 -660 400 -206 126 -397 241 -425 256 -63 36 -134 39 -185 8z"/>
<path d="M3479 4428 c-20 -22 -50 -71 -298 -480 -129 -211 -139 -245 -102
-320 24 -50 2 -35 409 -280 210 -128 318 -187 330 -183 16 5 363 569 370 602
2 8 -6 26 -19 39 l-22 23 47 81 c26 44 44 85 41 91 -4 5 -25 22 -48 36 -59 37
-646 392 -669 404 -15 8 -23 5 -39 -13z"/>
<path d="M4258 3713 c-12 -15 -169 -270 -329 -536 -16 -26 -29 -54 -29 -62 0
-8 24 -30 53 -48 108 -69 325 -197 335 -197 11 0 18 10 221 345 83 137 151
258 151 270 0 15 -42 46 -185 133 -102 61 -189 112 -194 112 -4 0 -15 -8 -23
-17z"/>
<path d="M4888 3558 c-14 -18 -35 -51 -48 -73 -30 -49 -37 -55 -70 -49 -17 4
-31 0 -41 -13 -9 -10 -94 -148 -189 -306 -171 -284 -173 -288 -154 -307 10
-10 154 -100 319 -201 280 -170 303 -182 347 -182 86 1 70 -19 336 418 206
339 202 330 176 354 -19 18 -607 375 -636 386 -11 4 -24 -4 -40 -27z"/>
</g>
</svg> 